<?xml version="1.0" encoding="UTF-8"?>
<!DOCTYPE svg PUBLIC "-//W3C//DTD SVG 1.1//EN" "http://www.w3.org/Graphics/SVG/1.1/DTD/svg11.dtd">
<!-- Creator: CorelDRAW -->
<svg xmlns="http://www.w3.org/2000/svg" xml:space="preserve" width="2048px" height="2048px" style="shape-rendering:geometricPrecision; text-rendering:geometricPrecision; image-rendering:optimizeQuality; fill-rule:evenodd; clip-rule:evenodd"
viewBox="0 0 2048 2048"
 xmlns:xlink="http://www.w3.org/1999/xlink">
 <defs>
  <style type="text/css">
   <![CDATA[
    .fil0 {fill:#00838F}
    .fil2 {fill:#FFFFFE}
    .fil1 {fill:#FFFFFE;fill-rule:nonzero}
   ]]>
  </style>
 </defs>
 <g id="Layer_x0020_1">
  <metadata id="CorelCorpID_0Corel-Layer"/>
  <circle class="fil0" cx="1024" cy="1024" r="1024"/>
  <g id="_294338232">
   <path id="_294338976" class="fil1" d="M487.334 876.675c-12.887,0 -23.3339,10.4469 -23.3339,23.3339 0,12.8858 10.4469,23.3339 23.3339,23.3339l1073.33 0c12.887,0 23.3339,-10.448 23.3339,-23.3339 0,-12.887 -10.4469,-23.3339 -23.3339,-23.3339l-1073.33 0z"/>
   <path id="_294339216" class="fil1" d="M1081.38 632.893c-8.75906,-9.36261 -23.4508,-9.85158 -32.8134,-1.0937 -9.36142,8.75906 -9.85158,23.4508 -1.0937,32.8122l233.861 249.751c8.75906,9.36261 23.4508,9.85276 32.8134,1.0937 9.36142,-8.75788 9.85158,-23.4496 1.0937,-32.8122l-233.861 -249.751z"/>
   <path id="_294339384" class="fil1" d="M1000.52 664.613c8.75788,-9.36261 8.26772,-24.0532 -1.0937,-32.8122 -9.36261,-8.75906 -24.0543,-8.2689 -32.8134,1.0937l-233.861 249.75c-8.75788,9.36261 -8.26772,24.0543 1.0937,32.8122 9.36261,8.75906 24.0543,8.2689 32.8134,-1.0937l233.861 -249.75z"/>
   <path id="_294338880" class="fil1" d="M1024 546.349c20.2122,0 38.5146,8.19449 51.7619,21.4429 13.2484,13.2484 21.4441,31.5496 21.4441,51.7607 0,20.2122 -8.19449,38.5146 -21.4441,51.763 -13.2473,13.2473 -31.5496,21.4429 -51.7619,21.4429 -20.2122,0 -38.5122,-8.19568 -51.7607,-21.4429 -13.2496,-13.2484 -21.4441,-31.5508 -21.4441,-51.763 0,-20.211 8.19568,-38.5122 21.4441,-51.7607 13.2484,-13.2484 31.5496,-21.4429 51.7607,-21.4429z"/>
   <path id="_294338952" class="fil2" d="M1429.63 1427.47l87.73 -504.13 3.13819 -18.0319c0.39567,-1.70433 0.605906,-3.48071 0.605906,-5.30552 0,-12.7689 -10.2579,-23.1437 -22.9831,-23.3303l-0.350788 -0.00354331 -188.123 0 -63.606 0 -444.09 0.00354331 -63.6071 0 -187.828 -0.00354331 -0.693308 0.00354331c-1.18937,0.0212599 -2.39055,0.133465 -3.59764,0.34252 -12.6957,2.20984 -21.1961,14.2937 -18.9874,26.9882l0.0318898 -0.00472441 3.36496 19.3417 87.7312 504.13c3.53504,20.3185 12.7949,39.202 26.9386,52.8036 13.7173,13.1929 31.611,21.3744 52.9737,21.3744l651.44 0c21.3626,0 39.2563,-8.1815 52.9737,-21.3744 14.1425,-13.6016 23.4036,-32.4862 26.9386,-52.8036zm-405.631 -473.272c64.8792,0 123.621,26.3008 166.14,68.8205 42.5197,42.5185 68.8193,101.261 68.8193,166.14 0,64.8804 -26.2996,123.621 -68.8193,166.141 -42.5185,42.5185 -101.261,68.8193 -166.14,68.8193 -64.8804,0 -123.621,-26.3008 -166.141,-68.8193 -42.5185,-42.5197 -68.8193,-101.261 -68.8193,-166.141 0,-64.8792 26.2996,-123.621 68.8193,-166.14 42.5197,-42.5209 101.26,-68.8205 166.141,-68.8205z"/>
   <path id="_294339024" class="fil2" d="M956.865 1323.11l0 0zm66.6662 -272.932c18.6886,-1.04055 36.8516,3.72638 52.239,14.8122 13.8579,9.98741 25.1858,24.9567 32.2087,45.2363l-32.9481 11.3469c-4.50709,-13.0134 -11.3917,-22.3429 -19.6323,-28.2815 -8.61142,-6.20434 -19.0394,-8.85709 -29.954,-8.25001 -7.35237,0.408662 -14.713,2.24173 -21.4158,5.38347 -8.11418,3.80315 -15.2504,9.53623 -20.1603,16.9748 -4.75512,7.20237 -7.42678,16.2201 -6.83268,26.8878 0.465355,8.35394 2.87362,17.7248 7.72323,28.0713 5.38937,11.4933 -1.27323,-2.76142 3.52559,7.42796 0.47126,1.00039 0.935434,1.98662 1.3937,2.96103l60.326 0 0 34.9996 -44.876 0c9.4382,25.3347 8.31851,40.9961 -8.72363,66.2646 3.62008,0.159449 7.37599,0.540945 11.263,1.18228 23.7425,3.91772 37.7977,9.25394 48.4311,13.291 13.2378,5.02559 18.4949,7.02166 44.4662,-7.54607l17.0906 30.489c-40.1622,22.5272 -49.741,18.8917 -73.8615,9.73347 -9.28465,-3.52441 -21.5563,-8.18386 -41.7307,-11.5134 -29.6504,-4.89095 -45.1489,13.4138 -45.1985,13.461l-0.0637796 0.0732284 -26.4555 -22.7634 0.37441 -0.421654c42.9532,-49.6465 49.2225,-60.8162 36.4205,-92.2501l-18.8232 0 0 -34.9996 2.89725 0c-5.5689,-13.011 -8.41182,-25.2343 -9.04253,-36.5469 -1.0441,-18.7276 3.86811,-34.891 12.5752,-48.078 8.54883,-12.952 20.7543,-22.8295 34.5142,-29.2807 10.8059,-5.06575 22.5827,-8.01379 34.2697,-8.66457zm200.43 138.986c0,-55.2178 -22.3819,-105.21 -58.5662,-141.393 -36.1831,-36.1843 -86.1757,-58.5674 -141.393,-58.5674 -55.2189,0 -105.21,22.3819 -141.395,58.5674 -36.1855,36.1831 -58.5662,86.1757 -58.5662,141.393 0,55.2178 22.3819,105.21 58.5662,141.395 36.1843,36.1843 86.1768,58.565 141.395,58.565 55.2178,0 105.21,-22.3807 141.393,-58.565 36.1843,-36.1843 58.5662,-86.1768 58.5662,-141.395z"/>
  </g>
 </g>
</svg>
